<?xml version="1.0" encoding="utf-8"?>
<!-- Generator: Adobe Illustrator 18.1.0, SVG Export Plug-In . SVG Version: 6.00 Build 0)  -->
<svg version="1.1" id="Capa_1" xmlns="http://www.w3.org/2000/svg" xmlns:xlink="http://www.w3.org/1999/xlink" x="0px" y="0px"
	 viewBox="0 0 1200 2000" enable-background="new 0 0 1200 2000" xml:space="preserve">
<g>
	<g>
		<path fill="#084535" d="M1094.5,543H105.5c-16.2,0-31.4,4-45.2,10.6l537.4,537.4l120.4-115.8c0,0,0,0,0,0s0,0,0,0l421.6-421.6
			C1126,547,1110.8,543,1094.5,543z"/>
	</g>
</g>
<g>
	<g>
		<path fill="#084535" d="M1189.4,603.3L792.7,1000l396.7,396.7c6.6-13.8,10.6-29,10.6-45.2V648.4C1200,632.2,1196,617,1189.4,603.3
			z"/>
	</g>
</g>
<g>
	<g>
		<path fill="#084535" d="M10.6,603.3C4,617,0,632.2,0,648.4v703.1c0,16.2,4,31.4,10.6,45.2L407.3,1000L10.6,603.3z"/>
	</g>
</g>
<g>
	<g>
		<path fill="#084535" d="M743,1049.7l-120.5,115.8c-6.9,6.9-15.9,10.3-24.9,10.3c-9,0-18-3.4-24.9-10.3L457,1049.7L60.3,1446.5
			c13.8,6.6,29,10.6,45.2,10.6h989.1c16.2,0,31.4-4,45.2-10.6L743,1049.7z"/>
	</g>
</g>
</svg>
