<?xml version="1.0" encoding="utf-8"?>
<!-- Generator: Adobe Illustrator 18.1.0, SVG Export Plug-In . SVG Version: 6.00 Build 0)  -->
<svg version="1.1" id="Capa_1" xmlns="http://www.w3.org/2000/svg" xmlns:xlink="http://www.w3.org/1999/xlink" x="0px" y="0px"
	 viewBox="0 0 1200 2000" enable-background="new 0 0 1200 2000" xml:space="preserve">
<g>
	<g>
		<path fill="#084535" d="M1094.5,543H105.5C47.4,543,0,590.3,0,648.4v703.1c0,57.9,47.2,105.5,105.5,105.5h989.1
			c57.9,0,105.5-47.2,105.5-105.5V648.4C1200,590.5,1152.8,543,1094.5,543z M1080,613.3L602.2,1091L120.4,613.3H1080z M70.3,1337
			V662.7l338.6,335.7L70.3,1337z M120,1386.7l338.8-338.8l118.7,117.7c13.7,13.6,35.9,13.6,49.6-0.1L743,1049.7l337,337H120z
			 M1129.7,1337l-337-337l337-337V1337z"/>
	</g>
</g>
</svg>
