<?xml version="1.0" encoding="utf-8"?>
<!-- Generator: Adobe Illustrator 18.1.0, SVG Export Plug-In . SVG Version: 6.00 Build 0)  -->
<svg version="1.1" id="Слой_1" xmlns="http://www.w3.org/2000/svg" xmlns:xlink="http://www.w3.org/1999/xlink" x="0px" y="0px"
	 viewBox="0 0 1200 2000" enable-background="new 0 0 1200 2000" xml:space="preserve">
<path fill="#084535" d="M600,400C270.4,400,0,670.4,0,1000c0,281.2,197.3,536.7,459.4,600v-198.5c-26,5.7-49.9,5.9-76.3-1.9
	c-35.5-10.5-64.3-34.1-85.7-70.1c-13.6-23-37.8-47.9-63-46.1l-6.2-70c54.5-4.7,101.7,33.2,129.6,80.2c12.4,20.9,26.7,33.2,45.1,38.6
	c17.8,5.2,36.8,2.7,59-5.1c5.6-44.5,25.9-61.1,41.3-84.5v0c-156.3-23.3-218.6-106.2-243.3-171.7c-32.8-86.9-15.2-195.4,42.7-264
	c1.1-1.3,3.2-4.8,2.4-7.3c-26.6-80.2,5.8-146.6,7-153.6c30.7,9.1,35.6-9.1,133.1,50.1l16.9,10.1c7,4.2,4.8,1.8,11.9,1.3
	c40.7-11.1,83.6-17.2,125.9-17.7c42.6,0.5,85.3,6.7,127.7,18.2l5.5,0.5c-0.5-0.1,1.5-0.3,4.8-2.3c121.8-73.8,117.4-49.7,150.1-60.3
	c1.2,7,33.1,74.5,6.8,153.7c-3.5,10.9,105.6,110.9,45.1,271.3c-24.7,65.5-87,148.4-243.3,171.7v0c20,30.5,44.1,46.8,44,109.8V1600
	c262.1-63.3,459.4-318.8,459.4-600C1200,670.4,929.6,400,600,400z"/>
</svg>
