<?xml version="1.0" encoding="utf-8"?>
<!-- Generator: Adobe Illustrator 18.1.0, SVG Export Plug-In . SVG Version: 6.00 Build 0)  -->
<svg version="1.1" id="Слой_1" xmlns="http://www.w3.org/2000/svg" xmlns:xlink="http://www.w3.org/1999/xlink" x="0px" y="0px"
	 viewBox="0 0 1200 2000" enable-background="new 0 0 1200 2000" xml:space="preserve">
<path fill="#FFFF00" d="M600,400C270.2,400,0,672.6,0,1002.3C0,1330.2,267.8,1600,600,1600c331.8,0,600-269.4,600-597.7
	C1200,672.6,929.8,400,600,400z M705.5,1519.1c-33.7,7-69.6,10.5-105.5,10.5s-71.7-3.5-105.5-10.5v-164.5
	c0-39.4,10.5-53.4,24.6-72.4c7.2-8.2,11.5-15.5,43.6-64l-54.1-8.4c-139.2-20.4-194.1-92.8-215.9-149.1
	c-28.1-75.2-13.4-169.5,37.3-229.2c7.7-9.1,14.1-24.6,8.4-40.8c-10.6-32.3-9.1-83.7-2.1-103.4c37.3,5.3,75.6,32,107.6,51.3
	c14.7,8.6,22.5,6.3,29.5,7c25.7-5.3,65.8-18.3,127.3-18.3c38,0,78,5.6,117.4,16.9c7-0.2,18.4,5.8,38-5.6
	c33.4-20.4,70.4-46.2,107.6-51.3c7,19.7,8.4,71-2.1,103.4c-5.6,16.2,0.7,31.6,8.4,40.8c50.6,59.8,65.4,154,37.3,229.2
	c-21.8,56.3-76.6,128.7-215.9,149.1l-54.1,8.4c33.2,50.1,36.7,56.1,43.6,64c14.1,19,24.6,33.1,24.6,72.4V1519.1z M775.8,1498.8
	v-144.1c0-40.1-8.4-66.8-19.7-86.5c106.9-28.8,182.8-92.1,216.6-182.8c35.9-95.6,19.7-209.5-40.1-288.3
	c10.6-47.1,10.6-122.3-14.8-157.5c-11.3-15.5-26.7-23.9-46.4-23.9c-0.7,0-0.7,0-0.7,0c-54.5,2.9-97.4,30.4-143.4,58.4
	c-42.2-11.3-85.1-16.9-128-16.9c-43.6,0-87.2,6.3-125.8,16.9c-48.4-29.2-90.9-55.5-147-58.4c-17.6,0-33.1,8.4-44.3,23.9
	c-25.3,35.2-25.3,110.4-14.8,157.5c-59.8,78.8-75.9,193.4-40.1,288.3c33.7,90.7,109.7,154,216.6,182.8c-8.7,15.3-15.6,35-18.3,61.6
	c-21.6,7.4-40.3,9.9-57.7,4.8c-18.4-5.4-32.7-17.7-45.1-38.6c-27.9-46.9-75.5-85.2-129.6-80.2l6.2,70c25.1-2.3,50,24.2,63,46.1
	c21.4,36,50.2,59.6,85.7,70.1c26.3,7.8,50.4,7.6,76.3,2v94.8C219.6,1427,70.3,1231.6,70.3,1002.3c0-291.1,238.6-532,529.7-532
	s529.7,240.9,529.7,532C1129.7,1231.6,980.4,1427,775.8,1498.8z"/>
</svg>
