<?xml version="1.0" encoding="utf-8"?>
<!-- Generator: Adobe Illustrator 18.1.0, SVG Export Plug-In . SVG Version: 6.00 Build 0)  -->
<svg version="1.1" id="Слой_1" xmlns="http://www.w3.org/2000/svg" xmlns:xlink="http://www.w3.org/1999/xlink" x="0px" y="0px"
	 viewBox="0 0 1200 2000" enable-background="new 0 0 1200 2000" xml:space="preserve">
<path fill="#084535" d="M875.2,400H324.8C145.7,400,0,545.7,0,724.8v550.3C0,1454.3,145.7,1600,324.8,1600h550.3
	c179.1,0,324.8-145.7,324.8-324.8V724.8C1200,545.7,1054.3,400,875.2,400z M600,1328.1c-180.9,0-328.1-147.2-328.1-328.1
	S419.1,671.9,600,671.9S928.1,819.1,928.1,1000S780.9,1328.1,600,1328.1z M936,749.3c-53.5,0-97-43.5-97-97s43.5-97,97-97
	c53.5,0,97,43.5,97,97S989.4,749.3,936,749.3z"/>
<path fill="#084535" d="M600,742.2c-142.1,0-257.8,115.6-257.8,257.8c0,142.1,115.6,257.8,257.8,257.8
	c142.1,0,257.8-115.6,257.8-257.8C857.8,857.9,742.1,742.2,600,742.2z"/>
<path fill="#084535" d="M936,625.7c-14.7,0-26.6,11.9-26.6,26.6s11.9,26.6,26.6,26.6c14.7,0,26.6-11.9,26.6-26.6
	S950.6,625.7,936,625.7z"/>
</svg>
