<?xml version="1.0" encoding="utf-8"?>
<!-- Generator: Adobe Illustrator 18.1.0, SVG Export Plug-In . SVG Version: 6.00 Build 0)  -->
<svg version="1.1" id="Слой_1" xmlns="http://www.w3.org/2000/svg" xmlns:xlink="http://www.w3.org/1999/xlink" x="0px" y="0px"
	 viewBox="0 0 1200 2000" enable-background="new 0 0 1200 2000" xml:space="preserve">
<path fill="#FFFF00" d="M875.2,400H324.8C145.7,400,0,545.7,0,724.8v550.3C0,1454.3,145.7,1600,324.8,1600h550.3
	c179.1,0,324.8-145.7,324.8-324.8V724.8C1200,545.7,1054.3,400,875.2,400z M1129.6,1275.2c0,140.3-114.2,254.5-254.5,254.5H324.8
	c-140.3,0-254.5-114.2-254.5-254.5V724.8c0-140.3,114.2-254.5,254.5-254.5h550.3c140.3,0,254.5,114.2,254.5,254.5V1275.2z"/>
<path fill="#FFFF00" d="M600,671.9c-180.9,0-328.1,147.2-328.1,328.1s147.2,328.1,328.1,328.1s328.1-147.2,328.1-328.1
	S780.9,671.9,600,671.9z M600,1257.8c-142.1,0-257.8-115.6-257.8-257.8c0-142.1,115.6-257.8,257.8-257.8
	c142.1,0,257.8,115.6,257.8,257.8C857.8,1142.1,742.1,1257.8,600,1257.8z"/>
<path fill="#FFFF00" d="M936,555.4c-53.5,0-97,43.5-97,97s43.5,97,97,97s97-43.5,97-97S989.4,555.4,936,555.4z M936,678.9
	c-14.7,0-26.6-11.9-26.6-26.6c0-14.7,11.9-26.6,26.6-26.6c14.7,0,26.6,11.9,26.6,26.6S950.6,678.9,936,678.9z"/>
</svg>
