<?xml version="1.0" encoding="utf-8"?>
<!-- Generator: Adobe Illustrator 18.1.0, SVG Export Plug-In . SVG Version: 6.00 Build 0)  -->
<svg version="1.1" id="Capa_1" xmlns="http://www.w3.org/2000/svg" xmlns:xlink="http://www.w3.org/1999/xlink" x="0px" y="0px"
	 viewBox="0 0 1200 2000" enable-background="new 0 0 1200 2000" xml:space="preserve">
<g>
	<g>
		<path fill="#084535" d="M945.6,435l-1.3-1.6C923,412,894,399.9,863.7,400H335.6c-62.8,0.2-113.6,51-113.8,113.8v972.1
			c-0.1,30.3,12,59.3,33.4,80.7c21.4,21.5,50.4,33.5,80.7,33.4H864c30.3,0.1,59.3-11.9,80.7-33.3c21.5-21.4,33.5-50.4,33.4-80.7
			V513.9C978,484.4,966.3,456.1,945.6,435z M934,1485.9c0,18.6-7.4,36.4-20.5,49.5c-13.1,13.1-30.9,20.5-49.5,20.5H335.6
			c-18.6,0-36.4-7.4-49.5-20.5c-13.2-13.1-20.6-30.9-20.6-49.5v-972c0.1-38.7,31.4-70,70.1-70.1H864c18.6,0,36.4,7.5,49.5,20.6
			l1,0.9c12.6,13,19.6,30.4,19.6,48.5L934,1485.9z"/>
	</g>
</g>
<g>
	<g>
		<circle fill="#084535" cx="599.8" cy="1491.8" r="30.8"/>
	</g>
</g>
<g>
	<g>
		<path fill="#084535" d="M881.4,537.3h-0.2c-18-18.1-42.4-28.2-67.9-28.2H386.8c-25.4,0-49.8,10.2-67.8,28.2
			c-18.1,18-28.2,42.4-28.2,67.9v724.4c0,25.5,10.2,49.9,28.2,67.9c18,18.1,42.4,28.2,67.9,28.2h426.5c24.9,0,48.8-9.7,66.6-27
			l1.4-1.3c18.1-18,28.2-42.4,28.2-67.9V605.1C909.6,579.6,899.5,555.2,881.4,537.3z M850.2,1366.6l-0.9,1
			c-9.7,9.3-22.6,14.4-36.1,14.4H386.7c-13.9,0-27.2-5.5-37-15.3c-9.9-9.8-15.4-23.1-15.4-37V605.1c0-13.9,5.5-27.2,15.3-37
			c9.8-9.8,23.1-15.4,37-15.3h426.5c13.9,0,27.2,5.5,37,15.3c9.8,9.8,15.4,23.1,15.3,37l0.2,724.5
			C865.6,1343.5,860.1,1356.8,850.2,1366.6z"/>
	</g>
</g>
</svg>
