<?xml version="1.0" encoding="utf-8"?>
<!-- Generator: Adobe Illustrator 18.1.0, SVG Export Plug-In . SVG Version: 6.00 Build 0)  -->
<svg version="1.1" id="Capa_1" xmlns="http://www.w3.org/2000/svg" xmlns:xlink="http://www.w3.org/1999/xlink" x="0px" y="0px"
	 viewBox="0 0 1200 2000" enable-background="new 0 0 1200 2000" xml:space="preserve">
<g>
	<g>
		<path fill="#084535" d="M944.6,433.6v-0.1c-21.3-21.4-50.3-33.5-80.5-33.5H335.7c-62.8,0.2-113.6,51-113.8,113.8v972.3
			c0,30.2,12.1,59.2,33.5,80.5c21.3,21.4,50.2,33.4,80.3,33.5h528.6c30.2,0,59.1-12.1,80.3-33.5c21.4-21.3,33.4-50.2,33.5-80.3
			V513.9C978.1,483.8,966,454.9,944.6,433.6z M600,1522.8L600,1522.8c-17,0-30.7-13.8-30.7-30.7c0-17,13.8-30.7,30.7-30.7
			c17,0,30.7,13.8,30.7,30.7C630.7,1509,617,1522.8,600,1522.8z M887.7,1329.8c0,41.1-33.3,74.4-74.4,74.4H386.5
			c-41.1,0-74.4-33.3-74.4-74.4V605.2c0-41.1,33.3-74.4,74.4-74.4h426.9c41.1,0,74.4,33.3,74.4,74.4L887.7,1329.8z"/>
	</g>
</g>
</svg>
