<?xml version="1.0" encoding="utf-8"?>
<!-- Generator: Adobe Illustrator 18.1.0, SVG Export Plug-In . SVG Version: 6.00 Build 0)  -->
<svg version="1.1" id="Capa_1" xmlns="http://www.w3.org/2000/svg" xmlns:xlink="http://www.w3.org/1999/xlink" x="0px" y="0px"
	 viewBox="0 0 1200 2000" enable-background="new 0 0 1200 2000" xml:space="preserve">
<g>
	<g>
		<path fill="#084535" d="M600,400c-252,0-457,205-457,457c0,99.7,31.5,194.5,91.2,274l337.7,454.8c0.8,1.1,2.1,1.5,3.1,2.5
			c16.9,18.1,41.2,13.5,53.3-2.5c97.2-129.8,275.5-372.1,344-463.5c0,0,0-0.1,0-0.1l0.4-0.6c55.2-77.6,84.4-169.1,84.4-264.6
			C1057,605,852,400,600,400z M600,1103.6c-135.7,0-246.6-110.9-246.6-246.6S464.3,610.5,600,610.5S846.6,721.4,846.6,857
			S735.7,1103.6,600,1103.6z"/>
	</g>
</g>
</svg>
