<?xml version="1.0" encoding="utf-8"?>
<!-- Generator: Adobe Illustrator 18.1.0, SVG Export Plug-In . SVG Version: 6.00 Build 0)  -->
<svg version="1.1" id="Capa_1" xmlns="http://www.w3.org/2000/svg" xmlns:xlink="http://www.w3.org/1999/xlink" x="0px" y="0px"
	 viewBox="0 0 1200 2000" enable-background="new 0 0 1200 2000" xml:space="preserve">
<g>
	<g>
		<path fill="#084535" d="M600,400c-252,0-457,205-457,457c0,162.7,49.5,227.9,287.3,541.4c41.3,54.4,88.1,116.1,141.6,187.5
			c6.6,8.9,17.1,14.1,28.1,14.1s21.5-5.2,28.1-14.1c53.2-71,99.8-132.4,140.9-186.7c238.4-314.4,288-379.8,288-542.3
			C1057,605,852,400,600,400z M713,1356.8c-33.8,44.5-71.2,93.9-113,149.5c-42.1-55.9-79.8-105.6-113.7-150.3
			C255,1051,213.3,996.1,213.3,857c0-213.2,173.5-386.7,386.7-386.7S986.7,643.8,986.7,857C986.7,995.8,944.9,1050.9,713,1356.8z"/>
	</g>
</g>
<g>
	<g>
		<path fill="#084535" d="M600,610.9c-135.7,0-246.1,110.4-246.1,246.1s110.4,246.1,246.1,246.1S846.1,992.7,846.1,857
			S735.7,610.9,600,610.9z M600,1032.8c-96.9,0-175.8-78.9-175.8-175.8S503.1,681.3,600,681.3S775.8,760.1,775.8,857
			S696.9,1032.8,600,1032.8z"/>
	</g>
</g>
</svg>
