<?xml version="1.0" encoding="utf-8"?>
<!-- Generator: Adobe Illustrator 18.1.0, SVG Export Plug-In . SVG Version: 6.00 Build 0)  -->
<svg version="1.1" id="Capa_1" xmlns="http://www.w3.org/2000/svg" xmlns:xlink="http://www.w3.org/1999/xlink" x="0px" y="0px"
	 viewBox="0 0 1200 2000" enable-background="new 0 0 1200 2000" xml:space="preserve">
<g>
	<g>
		<path fill="#FFFF00" d="M1148.7,404L19.4,971C8,976.7,0.6,988.1,0,1000.9c-0.5,12.7,5.8,24.8,16.7,31.5l264.5,162.8V1565
			c0,15.1,9.7,28.6,24,33.3c14.4,4.8,30.2-0.1,39.2-12.2l180.8-240.7l405.5,249.5c9.8,6.1,22,6.9,32.6,2.2
			c10.6-4.7,18.2-14.2,20.4-25.6L1199.3,442c0.1-0.4,0.1-0.8,0.2-1.1C1204.1,412.4,1174.3,390.8,1148.7,404z M314.6,1133
			l-207.3-127.5l827.1-415.3L314.6,1133z M351.6,1459.5v-265.4l582.3-509.9C921.1,701.2,366.8,1439.2,351.6,1459.5z M924.2,1508.2
			l-356.5-219.4l534.2-711.2L924.2,1508.2z"/>
	</g>
</g>
</svg>
