<?xml version="1.0" encoding="utf-8"?>
<!-- Generator: Adobe Illustrator 18.1.0, SVG Export Plug-In . SVG Version: 6.00 Build 0)  -->
<svg version="1.1" id="Layer_1" xmlns="http://www.w3.org/2000/svg" xmlns:xlink="http://www.w3.org/1999/xlink" x="0px" y="0px"
	 viewBox="0 0 1200 2000" enable-background="new 0 0 1200 2000" xml:space="preserve">
<g>
	<g>
		<path fill="#084535" d="M0.1,724.8v550.3c0,179.2,145.7,324.9,324.8,324.9h550.3c179.1,0,324.8-145.7,324.8-324.8V724.8
			c0.1-179.1-145.6-324.8-324.7-324.8H324.9C145.8,400,0.1,545.7,0.1,724.8z M209.9,781.3c39.5-0.8,79.1-0.7,118.5-0.1
			c16.1,0.3,26.7,9.4,32.9,24.6c21.4,52.5,47.5,102.5,80.3,148.8c8.8,12.3,17.7,24.6,30.3,33.3c14,9.7,24.7,6.5,31.3-9.2
			c4.2-10,6-20.6,6.9-31.2c3.1-36.5,3.5-73-1.9-109.4c-3.4-22.7-16.2-37.4-38.9-41.7c-11.6-2.2-9.8-6.5-4.3-13.1
			c9.8-11.4,19-18.5,37.2-18.5h136.7c21.6,4.2,26.4,13.9,29.3,35.6l0.1,152c-0.3,8.4,4.2,33.3,19.3,38.8c12.1,4,20.1-5.7,27.3-13.4
			c32.7-34.7,56.1-75.8,77-118.4c9.2-18.7,17.2-38.1,25-57.5c5.7-14.4,14.6-21.5,30.9-21.2l131.6,0.2c3.9,0,7.9,0,11.7,0.6
			c22.1,3.8,28.2,13.4,21.4,35.1c-10.7,34-31.8,62.3-52.3,90.7c-22,30.4-45.4,59.7-67.2,90.3c-19.9,28-18.4,42,6.5,66.3
			c27.5,26.9,56.7,52.2,81.4,81.9c10.9,13.1,21.3,26.7,29.1,41.9c11.2,21.8,1,45.7-18.4,47l-121-0.1c-31.2,2.6-56.1-10-77.1-31.4
			c-16.7-17-32.3-35.2-48.4-52.8c-6.6-7.2-13.5-14-21.7-19.4c-16.5-10.7-30.9-7.5-40.3,9.8c-9.6,17.5-11.9,37-12.8,56.5
			c-1.3,28.5-9.9,36-38.5,37.3c-61.2,2.8-119.3-6.5-173.2-37.3c-47.6-27.2-84.5-65.6-116.5-109.1
			c-62.5-84.7-110.4-177.7-153.4-273.4C179.1,793.3,186.2,781.7,209.9,781.3z"/>
	</g>
</g>
</svg>
