<?xml version="1.0" encoding="utf-8"?>
<!-- Generator: Adobe Illustrator 18.1.0, SVG Export Plug-In . SVG Version: 6.00 Build 0)  -->
<svg version="1.1" id="Слой_1" xmlns="http://www.w3.org/2000/svg" xmlns:xlink="http://www.w3.org/1999/xlink" x="0px" y="0px"
	 viewBox="0 0 1200 2000" enable-background="new 0 0 1200 2000" xml:space="preserve">
<path fill="#FFE600" d="M358.3,1082.9c30.2,40.8,64.6,76.7,109.4,102.4c50.5,28.9,104.9,37.6,162.6,34.9
	c26.7-1.2,34.9-8.2,36.1-35.1c0.7-18.3,3-36.6,11.9-52.9c8.9-16.1,22.3-19.3,37.9-9.2c7.7,5.2,14.4,11.4,20.3,18.3
	c15.1,16.6,29.7,33.6,45.5,49.5c19.8,20,43.1,31.9,72.2,29.4h113.6c18.3-1.2,27.7-23.8,17.3-44c-7.4-14.4-17.1-27-27.2-39.3
	c-23.3-28-50.5-51.7-76.5-76.7c-23.3-22.8-24.7-35.9-5.9-62.1c20.5-28.7,42.6-56.2,63.1-84.6c19.3-26.7,39.1-53.2,49-85.1
	c6.4-20.3,0.7-29.2-20-32.9c-3.7-0.5-7.4-0.5-10.9-0.5l-123.5-0.2c-15.1-0.2-23.5,6.4-28.9,19.8c-7.2,18.3-14.8,36.4-23.5,53.9
	c-19.5,39.8-41.6,78.4-72.2,111.1c-6.7,7.2-14.4,16.3-25.7,12.6c-14.1-5.2-18.3-28.5-18.1-36.4V813.2c-2.7-20.3-7.2-29.4-27.5-33.4
	H508.9c-17.1,0-25.7,6.7-34.9,17.3c-5.2,6.2-6.9,10.1,4,12.4c21.3,4,33.4,17.8,36.4,39.1c5.2,34.1,4.7,68.3,1.7,102.7
	c-0.7,9.9-2.5,20-6.4,29.2c-6.2,14.6-16.3,17.6-29.4,8.7c-11.9-8.2-20.3-19.8-28.5-31.2c-30.7-43.5-55.2-90.3-75.2-139.5
	c-5.7-14.4-15.8-22.8-30.9-23c-37.1-0.5-74.2-0.7-111.1,0c-22.3,0.5-28.9,11.1-19.8,31.4C254.6,916.1,299.6,1003.2,358.3,1082.9z"/>
<path fill="#FFE600" d="M0,721.6v556.7C0,1456,144,1600,321.6,1600h556.7c177.6,0,321.6-144,321.6-321.6V721.6
	C1200,544,1056,400,878.4,400H321.6C144,400,0,544,0,721.6z M804.1,1525.8H395.9c-177.6,0-321.6-144-321.6-321.6V795.9
	c0-177.6,144-321.6,321.6-321.6h408.2c177.6,0,321.6,144,321.6,321.6v408.2C1125.8,1381.8,981.8,1525.8,804.1,1525.8z"/>
</svg>
